<?xml version="1.0" encoding="utf-8" ?><svg xmlns="http://www.w3.org/2000/svg" xmlns:xlink="http://www.w3.org/1999/xlink" width="128" height="128" viewBox="0 0 128 128"><clipPath id="cl_3"><rect y="3.8146973e-06" width="128" height="128"/></clipPath><g clip-path="url(#cl_3)"><path fill="#141314" transform="matrix(0.124878 0 0 0.125 0 3.8147e-06)" d="M196.033 0.119934C210.352 -1.29514 230.776 -0.17337 245.73 -0.145203L329.202 -0.0971375L595.364 -0.0822144L754.518 -0.186615C784.205 -0.229675 834.353 -1.65137 861.898 3.23834C899.498 9.86618 934.409 27.1317 962.492 52.9902C1002.26 89.8857 1025.18 141.136 1026.7 195.109C1027.21 212.991 1027 231.268 1027 249.178L1027 339.175L1026.95 611.719L1026.86 746.423C1027.03 778.671 1028.84 830.327 1023.27 860.617C1016.39 897.541 999.294 931.795 973.917 959.492C931.951 1004.52 882.549 1023.09 821.953 1025.18C774.305 1026.1 724.03 1025.39 676.237 1025.36L402.121 1025.21L270.679 1025.33C237.653 1025.43 195.735 1026.99 163.841 1021.38C128.7 1015.26 95.9011 999.645 68.9947 976.234C27.9796 940.733 3.87613 892.144 0.499786 838.232C-1.05661 813.364 -0.62735 790.137 -0.589203 765.284C-0.66214 728.556 -0.473206 691.829 -0.0223389 655.105L0.0588684 420.487C0.279327 361.816 -0.587555 303.319 -0.24942 244.692C-0.0903015 217.205 -1.26715 191.635 3.51642 164.292C10.168 127.757 26.6834 93.7348 51.2759 65.9029C89.6655 21.8974 139.19 3.82489 196.033 0.119934ZM200.936 362.199C200.556 395.653 200.125 433.983 201.402 467.199C233.662 449.719 268.32 428.689 300.093 410.171L427.909 336.009L484.786 302.34C490.526 298.946 508.137 288.189 513.829 286.249C546.562 303.899 580.988 324.957 613.248 343.894L735.566 415.079L789.02 446.634C798.18 452.1 816.108 463.245 825.421 467.358C824.756 449.421 825.269 432.959 825.297 415.082C825.323 397.568 824.14 379.507 825.061 361.98L580.711 219.694C565.974 211.077 551.297 202.362 536.681 193.545C532.272 190.914 517.336 181.822 512.733 180.271C486.173 194.685 458.79 211.308 432.626 226.691L317.56 294.05L239.132 339.78C229.352 345.473 209.575 356.114 200.936 362.199ZM511.774 364.202L291.368 493.094L233.063 527.247C223.203 532.952 210.075 539.929 200.803 545.812C200.828 580.062 200.608 614.638 201.024 648.863C225.75 635.246 250.086 620.675 274.561 606.557L426.128 518.79L481.335 486.565C486.899 483.284 509.712 468.907 514.346 468.493C573.758 503.431 633.392 537.989 693.248 572.162C737.417 597.542 780.88 623.581 825.353 648.755C823.992 614.531 825.227 580.016 825.25 545.817C797.64 530.349 515.007 364.21 511.774 364.202ZM201.299 832.671C229.558 815.757 507.933 653.14 513.277 652.815L514.167 653.221C530.387 660.861 555.128 676.276 571.063 685.651L666.403 741.581C701.103 761.831 735.912 781.89 770.833 801.757C786.886 810.92 810.281 823.324 825.23 832.956C823.913 800.163 824.712 761.626 824.776 728.534C799.093 713.133 772.754 697.801 746.719 683.001C668.37 638.462 590.926 590.145 511.621 547.477C450.696 584.533 385.649 620.781 323.862 657.05L245.165 702.633C234.041 709.133 211.376 723.356 200.866 728.405C200.825 762.573 200.246 798.703 201.299 832.671Z"/></g></svg>